<svg width="25" height="24" viewBox="0 0 25 24" fill="none" xmlns="http://www.w3.org/2000/svg">
<path d="M19.3335 20.75C19.5987 20.75 19.8531 20.6446 20.0406 20.4571C20.2281 20.2696 20.3335 20.0152 20.3335 19.75V18.504C20.3375 15.698 16.3595 13.5 12.3335 13.5C8.3075 13.5 4.3335 15.698 4.3335 18.504V19.75C4.3335 20.0152 4.43885 20.2696 4.62639 20.4571C4.81393 20.6446 5.06828 20.75 5.3335 20.75H19.3335ZM15.9375 6.854C15.9375 7.32728 15.8443 7.79593 15.6632 8.23319C15.482 8.67045 15.2166 9.06775 14.8819 9.40241C14.5472 9.73707 14.1499 10.0025 13.7127 10.1837C13.2754 10.3648 12.8068 10.458 12.3335 10.458C11.8602 10.458 11.3916 10.3648 10.9543 10.1837C10.517 10.0025 10.1197 9.73707 9.78508 9.40241C9.45042 9.06775 9.18495 8.67045 9.00383 8.23319C8.82272 7.79593 8.7295 7.32728 8.7295 6.854C8.7295 5.89816 9.1092 4.98147 9.78508 4.30559C10.461 3.62971 11.3777 3.25 12.3335 3.25C13.2893 3.25 14.206 3.62971 14.8819 4.30559C15.5578 4.98147 15.9375 5.89816 15.9375 6.854Z" stroke="#707070" stroke-width="1.5" stroke-linecap="round" stroke-linejoin="round"/>
</svg>
