<svg width="177" height="30" viewBox="0 0 177 30" fill="none" xmlns="http://www.w3.org/2000/svg">
<path d="M29.1313 16.55C29.2201 15.9139 29.2635 15.2723 29.2613 14.63C29.2618 13.9981 29.2217 13.3668 29.1413 12.74H32.1413V16.55H29.1313ZM14.6413 21.06C13.3696 21.06 12.1264 20.6829 11.069 19.9764C10.0116 19.2698 9.18743 18.2656 8.70076 17.0907C8.21409 15.9158 8.08675 14.6229 8.33485 13.3756C8.58296 12.1283 9.19535 10.9826 10.0946 10.0833C10.9939 9.18407 12.1396 8.57166 13.3869 8.32356C14.6342 8.07546 15.927 8.20279 17.102 8.68946C18.2769 9.17614 19.2811 10.0003 19.9877 11.0577C20.6942 12.1151 21.0713 13.3583 21.0713 14.63C21.0713 16.3354 20.3939 17.9708 19.188 19.1767C17.9821 20.3826 16.3466 21.06 14.6413 21.06ZM36.3813 0.0600092C35.2462 0.0600092 34.1575 0.510955 33.3549 1.31361C32.5522 2.11627 32.1013 3.20488 32.1013 4.34001V5.34001H25.9113C23.9934 3.01725 21.4053 1.34313 18.5003 0.546246C15.5954 -0.250635 12.5153 -0.131423 9.68068 0.887615C6.84605 1.90665 4.39506 3.77585 2.66243 6.23991C0.929801 8.70397 0 11.6428 0 14.655C0 17.6673 0.929801 20.6061 2.66243 23.0701C4.39506 25.5342 6.84605 27.4034 9.68068 28.4224C12.5153 29.4414 15.5954 29.5607 18.5003 28.7638C21.4053 27.9669 23.9934 26.2928 25.9113 23.97H32.1013V29.28H40.6713V4.28001C40.6713 3.71711 40.5603 3.15974 40.3445 2.63981C40.1288 2.11989 39.8127 1.64761 39.4142 1.25004C39.0157 0.852476 38.5427 0.53745 38.0223 0.322949C37.5018 0.108447 36.9442 -0.00130351 36.3813 1.16816e-05" fill="#FF4752"/>
<path d="M59.5785 0.00500048H47.1685C46.5883 -0.0230329 46.0086 0.067019 45.4643 0.26971C44.92 0.472401 44.4225 0.783512 44.002 1.18417C43.5815 1.58483 43.2468 2.06668 43.0181 2.60055C42.7893 3.13442 42.6714 3.7092 42.6714 4.29C42.6714 4.87081 42.7893 5.44555 43.0181 5.97943C43.2468 6.5133 43.5815 6.99518 44.002 7.39584C44.4225 7.7965 44.92 8.10758 45.4643 8.31027C46.0086 8.51296 46.5883 8.60304 47.1685 8.57501H55.7384C56.1929 8.575 56.6289 8.75482 56.9512 9.07522C57.2734 9.39562 57.4558 9.83056 57.4585 10.285V29.285H66.0585V6.45498C66.0598 5.60759 65.8938 4.76828 65.5702 3.98513C65.2465 3.20199 64.7714 2.49043 64.1722 1.89123C63.573 1.29203 62.8615 0.816958 62.0783 0.493282C61.2952 0.169605 60.4559 0.00368362 59.6085 0.00500048" fill="#FF4752"/>
<path d="M72.3383 0.00501657C71.2032 0.00501657 70.1146 0.455931 69.3119 1.25859C68.5093 2.06124 68.0583 3.14989 68.0583 4.28502V29.285H76.6283V4.28502C76.6283 3.72212 76.5173 3.16474 76.3016 2.64482C76.0859 2.12489 75.7697 1.65261 75.3712 1.25505C74.9727 0.857481 74.4997 0.542424 73.9793 0.327923C73.4589 0.113422 72.9012 0.00370138 72.3383 0.00501657Z" fill="#FF4752"/>
<path d="M93.2601 21.0421C91.9888 21.0401 90.7466 20.6614 89.6905 19.9536C88.6344 19.2459 87.8118 18.241 87.3267 17.0659C86.8415 15.8908 86.7156 14.5982 86.9648 13.3516C87.2141 12.1049 87.8273 10.9602 88.7269 10.0619C89.6266 9.16365 90.7723 8.55227 92.0193 8.30497C93.2663 8.05768 94.5587 8.18559 95.733 8.67256C96.9074 9.15952 97.911 9.98365 98.6171 11.0408C99.3232 12.098 99.7001 13.3408 99.7001 14.6121C99.7001 15.4574 99.5334 16.2943 99.2097 17.0751C98.8859 17.8559 98.4114 18.5652 97.8132 19.1624C97.2151 19.7596 96.5051 20.233 95.7238 20.5556C94.9425 20.8781 94.1053 21.0434 93.2601 21.0421ZM114.2 0.0421259C113.065 0.0421259 111.976 0.493071 111.174 1.29573C110.371 2.09838 109.92 3.187 109.92 4.32212V10.5821H107.31C106.334 7.216 104.183 4.31194 101.247 2.39833C98.3105 0.484711 94.785 -0.311295 91.3115 0.155102C87.838 0.621499 84.6473 2.31932 82.32 4.93968C79.9926 7.56003 78.6833 10.9288 78.6301 14.4331C78.5769 17.9373 79.7835 21.3443 82.0303 24.034C84.2771 26.7238 87.4148 28.5176 90.8726 29.0891C94.3303 29.6607 97.8784 28.9719 100.871 27.1483C103.864 25.3246 106.103 22.4871 107.18 19.1521H109.92V29.2821H118.49V4.28215C118.49 3.71925 118.379 3.16188 118.163 2.64195C117.948 2.12202 117.631 1.64974 117.233 1.25218C116.834 0.854613 116.361 0.539556 115.841 0.325054C115.321 0.110553 114.763 0.000802208 114.2 0.00211739" fill="#FF4752"/>
<path d="M129.12 10.335C129.12 10.1092 129.164 9.88548 129.251 9.6768C129.337 9.46812 129.464 9.2785 129.624 9.11878C129.783 8.95907 129.973 8.83239 130.182 8.74595C130.39 8.65951 130.614 8.61503 130.84 8.61503H133.57V20.695H130.84C130.387 20.695 129.953 20.5166 129.631 20.1983C129.309 19.8801 129.125 19.4477 129.12 18.995V10.335ZM120.53 6.48502V22.835C120.53 24.5457 121.21 26.1862 122.419 27.3959C123.629 28.6055 125.269 29.285 126.98 29.285H143.55V20.695H141.25V8.59501H143.55V0.0250017H126.94C126.093 0.0236871 125.255 0.189316 124.472 0.512367C123.69 0.835419 122.979 1.30958 122.38 1.90772C121.781 2.50586 121.305 3.21622 120.981 3.99821C120.657 4.7802 120.49 5.61845 120.49 6.465" fill="#FF4752"/>
<path d="M155.55 0.0549927C152.898 0.0549927 150.354 1.10858 148.479 2.98395C146.604 4.85931 145.55 7.40283 145.55 10.055V29.265H154.12V10.075C154.12 9.69045 154.273 9.32164 154.545 9.04971C154.817 8.77779 155.185 8.625 155.57 8.625C155.955 8.625 156.323 8.77779 156.595 9.04971C156.867 9.32164 157.02 9.69045 157.02 10.075V29.285H165.59V10.075C165.59 7.42285 164.536 4.8793 162.661 3.00394C160.786 1.12857 158.242 0.0750122 155.59 0.0750122" fill="#FF4752"/>
<path d="M171.92 20.625C171.064 20.625 170.227 20.8789 169.514 21.3547C168.802 21.8305 168.247 22.5068 167.92 23.298C167.592 24.0892 167.506 24.9598 167.673 25.7997C167.84 26.6397 168.253 27.4112 168.858 28.0168C169.464 28.6223 170.235 29.0347 171.075 29.2018C171.915 29.3689 172.786 29.2831 173.577 28.9554C174.368 28.6277 175.045 28.0727 175.52 27.3606C175.996 26.6486 176.25 25.8114 176.25 24.955C176.25 23.8066 175.794 22.7053 174.982 21.8932C174.17 21.0812 173.068 20.625 171.92 20.625Z" fill="#FF4752"/>
</svg>
