<svg width="52" height="52" viewBox="0 0 52 52" fill="none" xmlns="http://www.w3.org/2000/svg">
<g clip-path="url(#clip0_77_1080)">
<path d="M52 0H0V52H52V0Z" fill="white"/>
<path d="M8.06 6.5H6.5V8.06H8.06V6.5Z" fill="#333333"/>
<path d="M9.62 6.5H8.06V8.06H9.62V6.5Z" fill="#333333"/>
<path d="M11.18 6.5H9.62V8.06H11.18V6.5Z" fill="#333333"/>
<path d="M12.74 6.5H11.18V8.06H12.74V6.5Z" fill="#333333"/>
<path d="M14.3 6.5H12.74V8.06H14.3V6.5Z" fill="#333333"/>
<path d="M15.86 6.5H14.3V8.06H15.86V6.5Z" fill="#333333"/>
<path d="M17.42 6.5H15.86V8.06H17.42V6.5Z" fill="#333333"/>
<path d="M20.54 6.5H18.98V8.06H20.54V6.5Z" fill="#333333"/>
<path d="M22.1 6.5H20.54V8.06H22.1V6.5Z" fill="#333333"/>
<path d="M26.78 6.5H25.22V8.06H26.78V6.5Z" fill="#333333"/>
<path d="M28.34 6.5H26.78V8.06H28.34V6.5Z" fill="#333333"/>
<path d="M33.02 6.5H31.46V8.06H33.02V6.5Z" fill="#333333"/>
<path d="M36.14 6.5H34.58V8.06H36.14V6.5Z" fill="#333333"/>
<path d="M37.7 6.5H36.14V8.06H37.7V6.5Z" fill="#333333"/>
<path d="M39.26 6.5H37.7V8.06H39.26V6.5Z" fill="#333333"/>
<path d="M40.82 6.5H39.26V8.06H40.82V6.5Z" fill="#333333"/>
<path d="M42.38 6.5H40.82V8.06H42.38V6.5Z" fill="#333333"/>
<path d="M43.94 6.5H42.38V8.06H43.94V6.5Z" fill="#333333"/>
<path d="M45.5 6.5H43.94V8.06H45.5V6.5Z" fill="#333333"/>
<path d="M8.06 8.06H6.5V9.62H8.06V8.06Z" fill="#333333"/>
<path d="M17.42 8.06H15.86V9.62H17.42V8.06Z" fill="#333333"/>
<path d="M26.78 8.06H25.22V9.62H26.78V8.06Z" fill="#333333"/>
<path d="M28.34 8.06H26.78V9.62H28.34V8.06Z" fill="#333333"/>
<path d="M33.02 8.06H31.46V9.62H33.02V8.06Z" fill="#333333"/>
<path d="M36.14 8.06H34.58V9.62H36.14V8.06Z" fill="#333333"/>
<path d="M45.5 8.06H43.94V9.62H45.5V8.06Z" fill="#333333"/>
<path d="M8.06 9.62H6.5V11.18H8.06V9.62Z" fill="#333333"/>
<path d="M11.18 9.62H9.62V11.18H11.18V9.62Z" fill="#333333"/>
<path d="M12.74 9.62H11.18V11.18H12.74V9.62Z" fill="#333333"/>
<path d="M14.3 9.62H12.74V11.18H14.3V9.62Z" fill="#333333"/>
<path d="M17.42 9.62H15.86V11.18H17.42V9.62Z" fill="#333333"/>
<path d="M22.1 9.62H20.54V11.18H22.1V9.62Z" fill="#333333"/>
<path d="M28.34 9.62H26.78V11.18H28.34V9.62Z" fill="#333333"/>
<path d="M29.9 9.62H28.34V11.18H29.9V9.62Z" fill="#333333"/>
<path d="M33.02 9.62H31.46V11.18H33.02V9.62Z" fill="#333333"/>
<path d="M36.14 9.62H34.58V11.18H36.14V9.62Z" fill="#333333"/>
<path d="M39.26 9.62H37.7V11.18H39.26V9.62Z" fill="#333333"/>
<path d="M40.82 9.62H39.26V11.18H40.82V9.62Z" fill="#333333"/>
<path d="M42.38 9.62H40.82V11.18H42.38V9.62Z" fill="#333333"/>
<path d="M45.5 9.62H43.94V11.18H45.5V9.62Z" fill="#333333"/>
<path d="M8.06 11.18H6.5V12.74H8.06V11.18Z" fill="#333333"/>
<path d="M11.18 11.18H9.62V12.74H11.18V11.18Z" fill="#333333"/>
<path d="M12.74 11.18H11.18V12.74H12.74V11.18Z" fill="#333333"/>
<path d="M14.3 11.18H12.74V12.74H14.3V11.18Z" fill="#333333"/>
<path d="M17.42 11.18H15.86V12.74H17.42V11.18Z" fill="#333333"/>
<path d="M22.1 11.18H20.54V12.74H22.1V11.18Z" fill="#333333"/>
<path d="M23.66 11.18H22.1V12.74H23.66V11.18Z" fill="#333333"/>
<path d="M25.22 11.18H23.66V12.74H25.22V11.18Z" fill="#333333"/>
<path d="M31.46 11.18H29.9L29.9 12.74H31.46V11.18Z" fill="#333333"/>
<path d="M33.02 11.18H31.46V12.74H33.02V11.18Z" fill="#333333"/>
<path d="M36.14 11.18H34.58V12.74H36.14V11.18Z" fill="#333333"/>
<path d="M39.26 11.18H37.7V12.74H39.26V11.18Z" fill="#333333"/>
<path d="M40.82 11.18H39.26V12.74H40.82V11.18Z" fill="#333333"/>
<path d="M42.38 11.18H40.82V12.74H42.38V11.18Z" fill="#333333"/>
<path d="M45.5 11.18H43.94V12.74H45.5V11.18Z" fill="#333333"/>
<path d="M8.06 12.74H6.5V14.3H8.06V12.74Z" fill="#333333"/>
<path d="M11.18 12.74H9.62V14.3H11.18V12.74Z" fill="#333333"/>
<path d="M12.74 12.74H11.18V14.3H12.74V12.74Z" fill="#333333"/>
<path d="M14.3 12.74H12.74V14.3H14.3V12.74Z" fill="#333333"/>
<path d="M17.42 12.74H15.86V14.3H17.42V12.74Z" fill="#333333"/>
<path d="M20.54 12.74H18.98V14.3H20.54V12.74Z" fill="#333333"/>
<path d="M22.1 12.74H20.54V14.3H22.1V12.74Z" fill="#333333"/>
<path d="M23.66 12.74H22.1V14.3H23.66V12.74Z" fill="#333333"/>
<path d="M28.34 12.74H26.78V14.3H28.34V12.74Z" fill="#333333"/>
<path d="M29.9 12.74H28.34V14.3H29.9L29.9 12.74Z" fill="#333333"/>
<path d="M36.14 12.74H34.58V14.3H36.14V12.74Z" fill="#333333"/>
<path d="M39.26 12.74H37.7V14.3H39.26V12.74Z" fill="#333333"/>
<path d="M40.82 12.74H39.26V14.3H40.82V12.74Z" fill="#333333"/>
<path d="M42.38 12.74H40.82V14.3H42.38V12.74Z" fill="#333333"/>
<path d="M45.5 12.74H43.94V14.3H45.5V12.74Z" fill="#333333"/>
<path d="M8.06 14.3H6.5V15.86H8.06V14.3Z" fill="#333333"/>
<path d="M17.42 14.3H15.86V15.86H17.42V14.3Z" fill="#333333"/>
<path d="M22.1 14.3H20.54V15.86H22.1V14.3Z" fill="#333333"/>
<path d="M26.78 14.3H25.22V15.86H26.78V14.3Z" fill="#333333"/>
<path d="M28.34 14.3H26.78V15.86H28.34V14.3Z" fill="#333333"/>
<path d="M31.46 14.3H29.9L29.9 15.86H31.46V14.3Z" fill="#333333"/>
<path d="M36.14 14.3H34.58V15.86H36.14V14.3Z" fill="#333333"/>
<path d="M45.5 14.3H43.94V15.86H45.5V14.3Z" fill="#333333"/>
<path d="M8.06 15.86H6.5V17.42H8.06V15.86Z" fill="#333333"/>
<path d="M9.62 15.86H8.06V17.42H9.62V15.86Z" fill="#333333"/>
<path d="M11.18 15.86H9.62V17.42H11.18V15.86Z" fill="#333333"/>
<path d="M12.74 15.86H11.18V17.42H12.74V15.86Z" fill="#333333"/>
<path d="M14.3 15.86H12.74V17.42H14.3V15.86Z" fill="#333333"/>
<path d="M15.86 15.86H14.3V17.42H15.86V15.86Z" fill="#333333"/>
<path d="M17.42 15.86H15.86V17.42H17.42V15.86Z" fill="#333333"/>
<path d="M20.54 15.86H18.98V17.42H20.54V15.86Z" fill="#333333"/>
<path d="M23.66 15.86H22.1V17.42H23.66V15.86Z" fill="#333333"/>
<path d="M26.78 15.86H25.22V17.42H26.78V15.86Z" fill="#333333"/>
<path d="M29.9 15.86H28.34V17.42H29.9L29.9 15.86Z" fill="#333333"/>
<path d="M33.02 15.86H31.46V17.42H33.02V15.86Z" fill="#333333"/>
<path d="M36.14 15.86H34.58V17.42H36.14V15.86Z" fill="#333333"/>
<path d="M37.7 15.86H36.14V17.42H37.7V15.86Z" fill="#333333"/>
<path d="M39.26 15.86H37.7V17.42H39.26V15.86Z" fill="#333333"/>
<path d="M40.82 15.86H39.26V17.42H40.82V15.86Z" fill="#333333"/>
<path d="M42.38 15.86H40.82V17.42H42.38V15.86Z" fill="#333333"/>
<path d="M43.94 15.86H42.38V17.42H43.94V15.86Z" fill="#333333"/>
<path d="M45.5 15.86H43.94V17.42H45.5V15.86Z" fill="#333333"/>
<path d="M20.54 17.42H18.98V18.98H20.54V17.42Z" fill="#333333"/>
<path d="M22.1 17.42H20.54V18.98H22.1V17.42Z" fill="#333333"/>
<path d="M23.66 17.42H22.1V18.98H23.66V17.42Z" fill="#333333"/>
<path d="M26.78 17.42H25.22V18.98H26.78V17.42Z" fill="#333333"/>
<path d="M28.34 17.42H26.78V18.98H28.34V17.42Z" fill="#333333"/>
<path d="M29.9 17.42H28.34V18.98H29.9V17.42Z" fill="#333333"/>
<path d="M31.46 17.42H29.9V18.98H31.46V17.42Z" fill="#333333"/>
<path d="M33.02 17.42H31.46V18.98H33.02V17.42Z" fill="#333333"/>
<path d="M8.06 18.98H6.5V20.54H8.06V18.98Z" fill="#333333"/>
<path d="M12.74 18.98H11.18V20.54H12.74V18.98Z" fill="#333333"/>
<path d="M14.3 18.98H12.74V20.54H14.3V18.98Z" fill="#333333"/>
<path d="M15.86 18.98H14.3V20.54H15.86V18.98Z" fill="#333333"/>
<path d="M17.42 18.98H15.86V20.54H17.42V18.98Z" fill="#333333"/>
<path d="M18.98 18.98H17.42V20.54H18.98V18.98Z" fill="#333333"/>
<path d="M20.54 18.98H18.98V20.54H20.54V18.98Z" fill="#333333"/>
<path d="M26.78 18.98H25.22V20.54H26.78V18.98Z" fill="#333333"/>
<path d="M29.9 18.98H28.34V20.54H29.9V18.98Z" fill="#333333"/>
<path d="M31.46 18.98H29.9V20.54H31.46V18.98Z" fill="#333333"/>
<path d="M33.02 18.98H31.46V20.54H33.02V18.98Z" fill="#333333"/>
<path d="M34.58 18.98H33.02V20.54H34.58V18.98Z" fill="#333333"/>
<path d="M36.14 18.98H34.58V20.54H36.14V18.98Z" fill="#333333"/>
<path d="M39.26 18.98H37.7V20.54H39.26V18.98Z" fill="#333333"/>
<path d="M45.5 18.98H43.94V20.54H45.5V18.98Z" fill="#333333"/>
<path d="M8.06 20.54H6.5V22.1H8.06V20.54Z" fill="#333333"/>
<path d="M9.62 20.54H8.06V22.1H9.62V20.54Z" fill="#333333"/>
<path d="M12.74 20.54H11.18V22.1H12.74V20.54Z" fill="#333333"/>
<path d="M14.3 20.54H12.74V22.1H14.3V20.54Z" fill="#333333"/>
<path d="M18.98 20.54H17.42V22.1H18.98V20.54Z" fill="#333333"/>
<path d="M22.1 20.54H20.54V22.1H22.1V20.54Z" fill="#333333"/>
<path d="M25.22 20.54H23.66V22.1H25.22V20.54Z" fill="#333333"/>
<path d="M28.34 20.54H26.78V22.1H28.34V20.54Z" fill="#333333"/>
<path d="M36.14 20.54H34.58V22.1H36.14V20.54Z" fill="#333333"/>
<path d="M40.82 20.54H39.26V22.1H40.82V20.54Z" fill="#333333"/>
<path d="M42.38 20.54H40.82V22.1H42.38V20.54Z" fill="#333333"/>
<path d="M43.94 20.54H42.38V22.1H43.94V20.54Z" fill="#333333"/>
<path d="M45.5 20.54H43.94V22.1H45.5V20.54Z" fill="#333333"/>
<path d="M12.74 22.1H11.18V23.66H12.74V22.1Z" fill="#333333"/>
<path d="M15.86 22.1H14.3V23.66H15.86V22.1Z" fill="#333333"/>
<path d="M17.42 22.1H15.86V23.66H17.42V22.1Z" fill="#333333"/>
<path d="M18.98 22.1H17.42V23.66H18.98V22.1Z" fill="#333333"/>
<path d="M23.66 22.1H22.1V23.66H23.66V22.1Z" fill="#333333"/>
<path d="M25.22 22.1H23.66V23.66H25.22V22.1Z" fill="#333333"/>
<path d="M28.34 22.1H26.78V23.66H28.34V22.1Z" fill="#333333"/>
<path d="M34.58 22.1H33.02V23.66H34.58V22.1Z" fill="#333333"/>
<path d="M37.7 22.1H36.14V23.66H37.7V22.1Z" fill="#333333"/>
<path d="M39.26 22.1H37.7V23.66H39.26V22.1Z" fill="#333333"/>
<path d="M43.94 22.1H42.38V23.66H43.94V22.1Z" fill="#333333"/>
<path d="M45.5 22.1H43.94V23.66H45.5V22.1Z" fill="#333333"/>
<path d="M8.06 23.66H6.5V25.22H8.06V23.66Z" fill="#333333"/>
<path d="M9.62 23.66H8.06V25.22H9.62V23.66Z" fill="#333333"/>
<path d="M12.74 23.66H11.18V25.22H12.74V23.66Z" fill="#333333"/>
<path d="M15.86 23.66H14.3V25.22H15.86V23.66Z" fill="#333333"/>
<path d="M18.98 23.66H17.42V25.22H18.98V23.66Z" fill="#333333"/>
<path d="M23.66 23.66H22.1V25.22H23.66V23.66Z" fill="#333333"/>
<path d="M25.22 23.66H23.66V25.22H25.22V23.66Z" fill="#333333"/>
<path d="M29.9 23.66H28.34V25.22H29.9V23.66Z" fill="#333333"/>
<path d="M31.46 23.66H29.9V25.22H31.46V23.66Z" fill="#333333"/>
<path d="M39.26 23.66H37.7V25.22H39.26V23.66Z" fill="#333333"/>
<path d="M42.38 23.66H40.82V25.22H42.38V23.66Z" fill="#333333"/>
<path d="M43.94 23.66H42.38V25.22H43.94V23.66Z" fill="#333333"/>
<path d="M9.62 25.22H8.06V26.78H9.62V25.22Z" fill="#333333"/>
<path d="M11.18 25.22H9.62V26.78H11.18V25.22Z" fill="#333333"/>
<path d="M12.74 25.22H11.18V26.78H12.74V25.22Z" fill="#333333"/>
<path d="M15.86 25.22H14.3V26.78H15.86V25.22Z" fill="#333333"/>
<path d="M17.42 25.22H15.86V26.78H17.42V25.22Z" fill="#333333"/>
<path d="M22.1 25.22H20.54V26.78H22.1V25.22Z" fill="#333333"/>
<path d="M25.22 25.22H23.66V26.78H25.22V25.22Z" fill="#333333"/>
<path d="M28.34 25.22H26.78V26.78H28.34V25.22Z" fill="#333333"/>
<path d="M29.9 25.22H28.34V26.78H29.9V25.22Z" fill="#333333"/>
<path d="M33.02 25.22H31.46V26.78H33.02V25.22Z" fill="#333333"/>
<path d="M37.7 25.22H36.14V26.78H37.7V25.22Z" fill="#333333"/>
<path d="M40.82 25.22H39.26V26.78H40.82V25.22Z" fill="#333333"/>
<path d="M42.38 25.22H40.82V26.78H42.38V25.22Z" fill="#333333"/>
<path d="M45.5 25.22H43.94V26.78H45.5V25.22Z" fill="#333333"/>
<path d="M12.74 26.78H11.18V28.34H12.74V26.78Z" fill="#333333"/>
<path d="M14.3 26.78H12.74V28.34H14.3V26.78Z" fill="#333333"/>
<path d="M23.66 26.78H22.1V28.34H23.66V26.78Z" fill="#333333"/>
<path d="M36.14 26.78H34.58V28.34H36.14V26.78Z" fill="#333333"/>
<path d="M39.26 26.78H37.7V28.34H39.26V26.78Z" fill="#333333"/>
<path d="M42.38 26.78H40.82V28.34H42.38V26.78Z" fill="#333333"/>
<path d="M43.94 26.78H42.38V28.34H43.94V26.78Z" fill="#333333"/>
<path d="M45.5 26.78H43.94V28.34H45.5V26.78Z" fill="#333333"/>
<path d="M8.06 28.34H6.5V29.9H8.06V28.34Z" fill="#333333"/>
<path d="M12.74 28.34H11.18V29.9H12.74V28.34Z" fill="#333333"/>
<path d="M14.3 28.34H12.74V29.9H14.3V28.34Z" fill="#333333"/>
<path d="M15.86 28.34H14.3V29.9H15.86V28.34Z" fill="#333333"/>
<path d="M17.42 28.34H15.86V29.9H17.42V28.34Z" fill="#333333"/>
<path d="M18.98 28.34H17.42V29.9H18.98V28.34Z" fill="#333333"/>
<path d="M22.1 28.34H20.54V29.9H22.1V28.34Z" fill="#333333"/>
<path d="M23.66 28.34H22.1V29.9H23.66V28.34Z" fill="#333333"/>
<path d="M25.22 28.34H23.66V29.9H25.22V28.34Z" fill="#333333"/>
<path d="M28.34 28.34H26.78V29.9H28.34V28.34Z" fill="#333333"/>
<path d="M29.9 28.34H28.34V29.9H29.9V28.34Z" fill="#333333"/>
<path d="M31.46 28.34H29.9V29.9H31.46V28.34Z" fill="#333333"/>
<path d="M33.02 28.34H31.46V29.9H33.02V28.34Z" fill="#333333"/>
<path d="M34.58 28.34H33.02V29.9H34.58V28.34Z" fill="#333333"/>
<path d="M36.14 28.34H34.58V29.9H36.14V28.34Z" fill="#333333"/>
<path d="M37.7 28.34H36.14V29.9H37.7V28.34Z" fill="#333333"/>
<path d="M39.26 28.34H37.7V29.9H39.26V28.34Z" fill="#333333"/>
<path d="M40.82 28.34H39.26V29.9H40.82V28.34Z" fill="#333333"/>
<path d="M42.38 28.34H40.82V29.9H42.38V28.34Z" fill="#333333"/>
<path d="M8.06 29.9H6.5V31.46H8.06V29.9Z" fill="#333333"/>
<path d="M11.18 29.9L9.62 29.9V31.46H11.18V29.9Z" fill="#333333"/>
<path d="M14.3 29.9H12.74V31.46H14.3V29.9Z" fill="#333333"/>
<path d="M22.1 29.9H20.54V31.46H22.1V29.9Z" fill="#333333"/>
<path d="M23.66 29.9H22.1V31.46H23.66V29.9Z" fill="#333333"/>
<path d="M26.78 29.9H25.22V31.46H26.78V29.9Z" fill="#333333"/>
<path d="M28.34 29.9H26.78V31.46H28.34V29.9Z" fill="#333333"/>
<path d="M29.9 29.9H28.34V31.46H29.9V29.9Z" fill="#333333"/>
<path d="M31.46 29.9H29.9V31.46H31.46V29.9Z" fill="#333333"/>
<path d="M40.82 29.9H39.26V31.46H40.82V29.9Z" fill="#333333"/>
<path d="M42.38 29.9H40.82V31.46H42.38V29.9Z" fill="#333333"/>
<path d="M45.5 29.9H43.94V31.46H45.5V29.9Z" fill="#333333"/>
<path d="M9.62 31.46H8.06V33.02H9.62V31.46Z" fill="#333333"/>
<path d="M11.18 31.46H9.62V33.02H11.18V31.46Z" fill="#333333"/>
<path d="M12.74 31.46H11.18V33.02H12.74V31.46Z" fill="#333333"/>
<path d="M14.3 31.46H12.74V33.02H14.3V31.46Z" fill="#333333"/>
<path d="M15.86 31.46H14.3V33.02H15.86V31.46Z" fill="#333333"/>
<path d="M17.42 31.46H15.86V33.02H17.42V31.46Z" fill="#333333"/>
<path d="M22.1 31.46H20.54V33.02H22.1V31.46Z" fill="#333333"/>
<path d="M28.34 31.46H26.78V33.02H28.34V31.46Z" fill="#333333"/>
<path d="M33.02 31.46H31.46V33.02H33.02V31.46Z" fill="#333333"/>
<path d="M34.58 31.46H33.02V33.02H34.58V31.46Z" fill="#333333"/>
<path d="M36.14 31.46H34.58V33.02H36.14V31.46Z" fill="#333333"/>
<path d="M37.7 31.46H36.14V33.02H37.7V31.46Z" fill="#333333"/>
<path d="M39.26 31.46H37.7V33.02H39.26V31.46Z" fill="#333333"/>
<path d="M20.54 33.02H18.98V34.58H20.54V33.02Z" fill="#333333"/>
<path d="M22.1 33.02H20.54V34.58H22.1V33.02Z" fill="#333333"/>
<path d="M26.78 33.02H25.22V34.58H26.78V33.02Z" fill="#333333"/>
<path d="M28.34 33.02H26.78V34.58H28.34V33.02Z" fill="#333333"/>
<path d="M33.02 33.02H31.46V34.58H33.02V33.02Z" fill="#333333"/>
<path d="M39.26 33.02H37.7V34.58H39.26V33.02Z" fill="#333333"/>
<path d="M42.38 33.02H40.82V34.58H42.38V33.02Z" fill="#333333"/>
<path d="M8.06 34.58H6.5V36.14H8.06V34.58Z" fill="#333333"/>
<path d="M9.62 34.58H8.06V36.14H9.62V34.58Z" fill="#333333"/>
<path d="M11.18 34.58H9.62V36.14H11.18V34.58Z" fill="#333333"/>
<path d="M12.74 34.58H11.18V36.14H12.74V34.58Z" fill="#333333"/>
<path d="M14.3 34.58H12.74V36.14H14.3V34.58Z" fill="#333333"/>
<path d="M15.86 34.58H14.3V36.14H15.86V34.58Z" fill="#333333"/>
<path d="M17.42 34.58H15.86V36.14H17.42V34.58Z" fill="#333333"/>
<path d="M20.54 34.58H18.98V36.14H20.54V34.58Z" fill="#333333"/>
<path d="M25.22 34.58H23.66V36.14H25.22V34.58Z" fill="#333333"/>
<path d="M26.78 34.58H25.22V36.14H26.78V34.58Z" fill="#333333"/>
<path d="M31.46 34.58H29.9V36.14H31.46V34.58Z" fill="#333333"/>
<path d="M33.02 34.58H31.46V36.14H33.02V34.58Z" fill="#333333"/>
<path d="M36.14 34.58H34.58V36.14H36.14V34.58Z" fill="#333333"/>
<path d="M39.26 34.58H37.7V36.14H39.26V34.58Z" fill="#333333"/>
<path d="M40.82 34.58H39.26V36.14H40.82V34.58Z" fill="#333333"/>
<path d="M42.38 34.58H40.82V36.14H42.38V34.58Z" fill="#333333"/>
<path d="M43.94 34.58H42.38V36.14H43.94V34.58Z" fill="#333333"/>
<path d="M8.06 36.14H6.5V37.7H8.06V36.14Z" fill="#333333"/>
<path d="M17.42 36.14H15.86V37.7H17.42V36.14Z" fill="#333333"/>
<path d="M20.54 36.14H18.98V37.7H20.54V36.14Z" fill="#333333"/>
<path d="M23.66 36.14H22.1V37.7H23.66V36.14Z" fill="#333333"/>
<path d="M25.22 36.14H23.66V37.7H25.22V36.14Z" fill="#333333"/>
<path d="M29.9 36.14H28.34V37.7H29.9L29.9 36.14Z" fill="#333333"/>
<path d="M31.46 36.14H29.9L29.9 37.7H31.46V36.14Z" fill="#333333"/>
<path d="M33.02 36.14H31.46V37.7H33.02V36.14Z" fill="#333333"/>
<path d="M39.26 36.14H37.7V37.7H39.26V36.14Z" fill="#333333"/>
<path d="M40.82 36.14H39.26V37.7H40.82V36.14Z" fill="#333333"/>
<path d="M43.94 36.14H42.38V37.7H43.94V36.14Z" fill="#333333"/>
<path d="M8.06 37.7H6.5V39.26H8.06V37.7Z" fill="#333333"/>
<path d="M11.18 37.7H9.62V39.26H11.18V37.7Z" fill="#333333"/>
<path d="M12.74 37.7H11.18V39.26H12.74V37.7Z" fill="#333333"/>
<path d="M14.3 37.7H12.74V39.26H14.3V37.7Z" fill="#333333"/>
<path d="M17.42 37.7H15.86V39.26H17.42V37.7Z" fill="#333333"/>
<path d="M20.54 37.7H18.98V39.26H20.54V37.7Z" fill="#333333"/>
<path d="M22.1 37.7H20.54V39.26H22.1V37.7Z" fill="#333333"/>
<path d="M23.66 37.7H22.1V39.26H23.66V37.7Z" fill="#333333"/>
<path d="M28.34 37.7H26.78V39.26H28.34V37.7Z" fill="#333333"/>
<path d="M29.9 37.7H28.34V39.26H29.9V37.7Z" fill="#333333"/>
<path d="M31.46 37.7H29.9V39.26H31.46V37.7Z" fill="#333333"/>
<path d="M33.02 37.7H31.46V39.26H33.02V37.7Z" fill="#333333"/>
<path d="M34.58 37.7H33.02V39.26H34.58V37.7Z" fill="#333333"/>
<path d="M36.14 37.7H34.58V39.26H36.14V37.7Z" fill="#333333"/>
<path d="M37.7 37.7H36.14V39.26H37.7V37.7Z" fill="#333333"/>
<path d="M39.26 37.7H37.7V39.26H39.26V37.7Z" fill="#333333"/>
<path d="M43.94 37.7H42.38V39.26H43.94V37.7Z" fill="#333333"/>
<path d="M8.06 39.26H6.5V40.82H8.06V39.26Z" fill="#333333"/>
<path d="M11.18 39.26H9.62V40.82H11.18V39.26Z" fill="#333333"/>
<path d="M12.74 39.26H11.18V40.82H12.74V39.26Z" fill="#333333"/>
<path d="M14.3 39.26H12.74V40.82H14.3V39.26Z" fill="#333333"/>
<path d="M17.42 39.26H15.86V40.82H17.42V39.26Z" fill="#333333"/>
<path d="M20.54 39.26H18.98V40.82H20.54V39.26Z" fill="#333333"/>
<path d="M22.1 39.26H20.54V40.82H22.1V39.26Z" fill="#333333"/>
<path d="M23.66 39.26H22.1V40.82H23.66V39.26Z" fill="#333333"/>
<path d="M26.78 39.26H25.22V40.82H26.78V39.26Z" fill="#333333"/>
<path d="M29.9 39.26H28.34V40.82H29.9V39.26Z" fill="#333333"/>
<path d="M33.02 39.26H31.46V40.82H33.02V39.26Z" fill="#333333"/>
<path d="M37.7 39.26H36.14V40.82H37.7V39.26Z" fill="#333333"/>
<path d="M39.26 39.26H37.7V40.82H39.26V39.26Z" fill="#333333"/>
<path d="M42.38 39.26H40.82V40.82H42.38V39.26Z" fill="#333333"/>
<path d="M43.94 39.26H42.38V40.82H43.94V39.26Z" fill="#333333"/>
<path d="M8.06 40.82H6.5V42.38H8.06V40.82Z" fill="#333333"/>
<path d="M11.18 40.82H9.62V42.38H11.18V40.82Z" fill="#333333"/>
<path d="M12.74 40.82H11.18V42.38H12.74V40.82Z" fill="#333333"/>
<path d="M14.3 40.82H12.74V42.38H14.3V40.82Z" fill="#333333"/>
<path d="M17.42 40.82H15.86V42.38H17.42V40.82Z" fill="#333333"/>
<path d="M23.66 40.82H22.1V42.38H23.66V40.82Z" fill="#333333"/>
<path d="M25.22 40.82H23.66V42.38H25.22V40.82Z" fill="#333333"/>
<path d="M26.78 40.82H25.22V42.38H26.78V40.82Z" fill="#333333"/>
<path d="M29.9 40.82H28.34V42.38H29.9V40.82Z" fill="#333333"/>
<path d="M31.46 40.82H29.9V42.38H31.46V40.82Z" fill="#333333"/>
<path d="M33.02 40.82H31.46V42.38H33.02V40.82Z" fill="#333333"/>
<path d="M37.7 40.82H36.14V42.38H37.7V40.82Z" fill="#333333"/>
<path d="M39.26 40.82H37.7V42.38H39.26V40.82Z" fill="#333333"/>
<path d="M40.82 40.82H39.26V42.38H40.82V40.82Z" fill="#333333"/>
<path d="M43.94 40.82H42.38V42.38H43.94V40.82Z" fill="#333333"/>
<path d="M45.5 40.82H43.94V42.38H45.5V40.82Z" fill="#333333"/>
<path d="M8.06 42.38H6.5V43.94H8.06V42.38Z" fill="#333333"/>
<path d="M17.42 42.38H15.86V43.94H17.42V42.38Z" fill="#333333"/>
<path d="M22.1 42.38H20.54V43.94H22.1V42.38Z" fill="#333333"/>
<path d="M25.22 42.38H23.66V43.94H25.22V42.38Z" fill="#333333"/>
<path d="M26.78 42.38H25.22V43.94H26.78V42.38Z" fill="#333333"/>
<path d="M28.34 42.38H26.78V43.94H28.34V42.38Z" fill="#333333"/>
<path d="M31.46 42.38H29.9L29.9 43.94H31.46V42.38Z" fill="#333333"/>
<path d="M37.7 42.38H36.14V43.94H37.7V42.38Z" fill="#333333"/>
<path d="M39.26 42.38H37.7V43.94H39.26V42.38Z" fill="#333333"/>
<path d="M40.82 42.38H39.26V43.94H40.82V42.38Z" fill="#333333"/>
<path d="M42.38 42.38H40.82V43.94H42.38V42.38Z" fill="#333333"/>
<path d="M43.94 42.38H42.38V43.94H43.94V42.38Z" fill="#333333"/>
<path d="M45.5 42.38H43.94V43.94H45.5V42.38Z" fill="#333333"/>
<path d="M8.06 43.94H6.5V45.5H8.06V43.94Z" fill="#333333"/>
<path d="M9.62 43.94H8.06V45.5H9.62V43.94Z" fill="#333333"/>
<path d="M11.18 43.94H9.62V45.5H11.18V43.94Z" fill="#333333"/>
<path d="M12.74 43.94H11.18V45.5H12.74V43.94Z" fill="#333333"/>
<path d="M14.3 43.94H12.74V45.5H14.3V43.94Z" fill="#333333"/>
<path d="M15.86 43.94H14.3V45.5H15.86V43.94Z" fill="#333333"/>
<path d="M17.42 43.94H15.86V45.5H17.42V43.94Z" fill="#333333"/>
<path d="M20.54 43.94H18.98V45.5H20.54V43.94Z" fill="#333333"/>
<path d="M26.78 43.94H25.22V45.5H26.78V43.94Z" fill="#333333"/>
<path d="M37.7 43.94H36.14V45.5H37.7V43.94Z" fill="#333333"/>
<path d="M39.26 43.94H37.7V45.5H39.26V43.94Z" fill="#333333"/>
<path d="M40.82 43.94H39.26V45.5H40.82V43.94Z" fill="#333333"/>
<path d="M45.5 43.94H43.94V45.5H45.5V43.94Z" fill="#333333"/>
</g>
<defs>
<clipPath id="clip0_77_1080">
<rect width="52" height="52" rx="8" fill="white"/>
</clipPath>
</defs>
</svg>
