<svg width="24" height="24" viewBox="0 0 24 24" fill="none" xmlns="http://www.w3.org/2000/svg">
<path fill-rule="evenodd" clip-rule="evenodd" d="M16.2014 10.9719C16.2014 11.6587 16.0662 12.3387 15.8033 12.9732C15.5405 13.6076 15.1553 14.1841 14.6697 14.6697C14.1841 15.1553 13.6076 15.5405 12.9732 15.8033C12.3387 16.0662 11.6587 16.2014 10.9719 16.2014C10.2852 16.2014 9.60518 16.0662 8.97071 15.8033C8.33624 15.5405 7.75975 15.1553 7.27415 14.6697C6.78855 14.1841 6.40335 13.6076 6.14054 12.9732C5.87774 12.3387 5.74247 11.6587 5.74247 10.9719C5.74247 9.585 6.29343 8.25486 7.27415 7.27415C8.25486 6.29343 9.585 5.74247 10.9719 5.74247C12.3589 5.74247 13.689 6.29343 14.6697 7.27415C15.6505 8.25486 16.2014 9.585 16.2014 10.9719ZM15.2485 16.4803C13.8474 17.568 12.0845 18.0809 10.3186 17.9145C8.55271 17.7481 6.9166 16.915 5.74334 15.5848C4.57009 14.2546 3.94789 12.5272 4.00342 10.7543C4.05895 8.98149 4.78803 7.29645 6.04224 6.04224C7.29645 4.78803 8.98149 4.05895 10.7543 4.00342C12.5272 3.94789 14.2546 4.57009 15.5848 5.74334C16.915 6.9166 17.7481 8.55271 17.9145 10.3186C18.0809 12.0845 17.568 13.8474 16.4803 15.2485L19.7226 18.4908C19.8082 18.5706 19.8769 18.6668 19.9245 18.7737C19.9722 18.8806 19.9978 18.996 19.9999 19.113C20.0019 19.2301 19.9804 19.3463 19.9366 19.4548C19.8927 19.5634 19.8275 19.662 19.7447 19.7447C19.662 19.8275 19.5634 19.8927 19.4548 19.9366C19.3463 19.9804 19.2301 20.0019 19.113 19.9999C18.996 19.9978 18.8806 19.9722 18.7737 19.9245C18.6668 19.8769 18.5706 19.8082 18.4908 19.7226L15.2485 16.4803Z" fill="#707070"/>
</svg>
