<svg width="25" height="25" viewBox="0 0 25 25" fill="none" xmlns="http://www.w3.org/2000/svg">
<path d="M19.271 3.125H16.6668C16.5287 3.125 16.3962 3.17987 16.2985 3.27755C16.2009 3.37522 16.146 3.5077 16.146 3.64583V3.70729L19.7918 6.62396V3.64583C19.7918 3.5077 19.737 3.37522 19.6393 3.27755C19.5416 3.17987 19.4091 3.125 19.271 3.125Z" fill="#F7323F"/>
<path fill-rule="evenodd" clip-rule="evenodd" d="M21.3125 10.1959L22.1271 10.848C22.2892 10.9743 22.4947 11.0317 22.6989 11.0076C22.903 10.9835 23.0895 10.8799 23.2178 10.7193C23.3461 10.5586 23.4059 10.3539 23.3842 10.1495C23.3626 9.94501 23.2612 9.75734 23.1021 9.62714L14.6385 2.85631C13.9458 2.302 13.0851 2 12.1979 2C11.3107 2 10.45 2.302 9.75729 2.85631L1.29375 9.62714C1.13186 9.75657 1.02801 9.94502 1.00506 10.151C0.982105 10.357 1.04192 10.5637 1.17135 10.7256C1.30079 10.8875 1.48923 10.9913 1.69522 11.0143C1.90122 11.0372 2.1079 10.9774 2.26979 10.848L3.08333 10.1959V20.9146H1.78125C1.57405 20.9146 1.37534 20.997 1.22882 21.1435C1.08231 21.29 1 21.4887 1 21.6959C1 21.9031 1.08231 22.1018 1.22882 22.2483C1.37534 22.3948 1.57405 22.4771 1.78125 22.4771H22.6146C22.8218 22.4771 23.0205 22.3948 23.167 22.2483C23.3135 22.1018 23.3958 21.9031 23.3958 21.6959C23.3958 21.4887 23.3135 21.29 23.167 21.1435C23.0205 20.997 22.8218 20.9146 22.6146 20.9146H21.3125V10.1959ZM9.33333 8.67506C9.33333 7.91533 9.63514 7.18671 10.1724 6.64949C10.7096 6.11228 11.4382 5.81048 12.1979 5.81048C12.9577 5.81048 13.6863 6.11228 14.2235 6.64949C14.7607 7.18671 15.0625 7.91533 15.0625 8.67506C15.0625 9.43479 14.7607 10.1634 14.2235 10.7006C13.6863 11.2378 12.9577 11.5396 12.1979 11.5396C11.4382 11.5396 10.7096 11.2378 10.1724 10.7006C9.63514 10.1634 9.33333 9.43479 9.33333 8.67506ZM12.25 12.5813C12.9417 12.5813 13.5385 12.5813 14.0167 12.6459C14.5292 12.7146 15.0198 12.8699 15.4177 13.2678C15.8156 13.6657 15.9708 14.1563 16.0396 14.6688C16.1 15.1167 16.1042 15.6688 16.1042 16.3074V20.9146H14.5417V16.4876C14.5417 15.7292 14.5396 15.2376 14.4917 14.8771C14.4458 14.5386 14.3729 14.4324 14.3125 14.373C14.2521 14.3136 14.1469 14.2396 13.8083 14.1938C13.4469 14.1459 12.9563 14.1438 12.1979 14.1438C11.4396 14.1438 10.9479 14.1459 10.5875 14.1938C10.249 14.2396 10.1427 14.3136 10.0833 14.373C10.024 14.4324 9.95 14.5386 9.90417 14.8771C9.85625 15.2386 9.85417 15.7292 9.85417 16.4876V20.9146H8.29167V16.4355C8.29167 15.7438 8.29167 15.1469 8.35625 14.6688C8.425 14.1563 8.58021 13.6657 8.97813 13.2678C9.37604 12.8699 9.86771 12.7146 10.3792 12.6459C10.8573 12.5813 11.4542 12.5813 12.1469 12.5813H12.25Z" fill="#F7323F"/>
<path d="M9.125 13.2539L12.125 13L15.125 13.2539L15.25 20.8749H9L9.125 13.2539Z" fill="#F5F5F5"/>
<circle cx="12.5" cy="8.5" r="3.5" fill="#F7323F"/>
</svg>
