<svg width="24" height="24" viewBox="0 0 24 24" fill="none" xmlns="http://www.w3.org/2000/svg">
<g clip-path="url(#clip0_232_86)">
<path d="M22 12C22 6.477 17.523 2 12 2C6.477 2 2 6.477 2 12C2 17.523 6.477 22 12 22C17.523 22 22 17.523 22 12Z" stroke="#F7323F" stroke-width="1.5"/>
<path d="M20 5.699C19.065 5.766 17.868 6.129 17.038 7.203C15.538 9.143 14.039 9.306 13.039 8.659C11.539 7.689 12.8 6.116 11.04 5.262C9.893 4.705 9.733 3.19 10.372 2M2 11C2.763 11.662 3.83 12.268 5.089 12.268C7.689 12.268 8.209 12.765 8.209 14.752C8.209 16.739 8.209 16.739 8.729 18.229C9.067 19.199 9.185 20.167 8.511 21M22 13.452C21.113 12.942 20 12.731 18.873 13.54C16.718 15.09 15.231 13.806 14.562 15.089C13.577 16.977 17.096 17.57 14 22" stroke="#F7323F" stroke-width="1.5" stroke-linejoin="round"/>
<path d="M15 15L22 13L21 16L19 18.5L17 20L15 21V15Z" fill="#F7323F"/>
<path d="M14 8.99995L10.4997 4.49986L10 2.5L13 2L16.1839 2.65987L18.263 4.04821L19.8704 5.6026L14 8.99995Z" fill="#F7323F"/>
<path d="M7.95559 12.7281L8.93745 20.944L6.10414 19.4314L3.91013 16.8432L2.70829 14.3799L2.00254 11.9789L7.95559 12.7281Z" fill="#F7323F"/>
</g>
<defs>
<clipPath id="clip0_232_86">
<rect width="24" height="24" fill="white"/>
</clipPath>
</defs>
</svg>
