<svg width="21" height="20" viewBox="0 0 21 20" fill="none" xmlns="http://www.w3.org/2000/svg">
<path d="M6.97678 2.03242L7.87428 1.74576C8.71428 1.47742 9.61261 1.91159 9.97261 2.75992L10.6893 4.44992C11.0018 5.18576 10.8284 6.05159 10.2609 6.58992L8.68345 8.08826C8.78067 8.98492 9.08178 9.86742 9.58678 10.7358C10.067 11.5756 10.7105 12.3109 11.4793 12.8983L13.3759 12.2649C14.0943 12.0258 14.8768 12.3016 15.3176 12.9491L16.3443 14.4574C16.8576 15.2108 16.7651 16.2491 16.1293 16.8874L15.4476 17.5716C14.7693 18.2524 13.8009 18.4999 12.9043 18.2199C10.7887 17.5599 8.84345 15.6008 7.06845 12.3424C5.29123 9.07853 4.664 6.30965 5.18678 4.03576C5.40678 3.07909 6.08845 2.31659 6.97845 2.03242" fill="#C2C2C2"/>
</svg>
