<svg width="18" height="18" viewBox="0 0 18 18" fill="none" xmlns="http://www.w3.org/2000/svg">
<path d="M1.75121 17.5C1.48554 17.4988 1.2312 17.3922 1.04396 17.2037C0.856721 17.0153 0.751866 16.7602 0.752386 16.4945C0.754651 16.3935 0.770416 16.2933 0.799261 16.1965L1.51879 13.5938C1.54887 13.4977 1.51489 13.4008 1.47075 13.3242L1.46215 13.3086C1.45903 13.3035 1.44418 13.2828 1.43364 13.2676C1.42309 13.2523 1.41098 13.2359 1.40004 13.2199L1.39262 13.2094C0.484087 11.8324 -0.000132988 10.2189 4.18074e-05 8.56914C-0.00698944 6.31953 0.873089 4.19414 2.47895 2.58164C4.14067 0.916798 6.36332 1.08506e-06 8.74301 1.08506e-06C10.7618 -0.000996331 12.7206 0.68567 14.2969 1.94688C15.8379 3.18711 16.909 4.91563 17.3129 6.81719C17.4373 7.39486 17.4999 7.9841 17.4997 8.575C17.4997 10.877 16.6153 13.0391 15.009 14.6637C13.3887 16.3043 11.2129 17.2051 8.88285 17.2051C8.06254 17.2051 7.01293 16.9957 6.50903 16.8535C5.90278 16.684 5.32817 16.4629 5.26489 16.4395C5.19792 16.4138 5.12684 16.4006 5.05512 16.4004C4.97734 16.3999 4.90027 16.4152 4.82856 16.4453L4.79535 16.4582L2.15942 17.4105C2.02996 17.4651 1.89161 17.4954 1.75121 17.5Z" fill="#C2C2C2"/>
</svg>
