<svg width="24" height="24" viewBox="0 0 24 24" fill="none" xmlns="http://www.w3.org/2000/svg">
<path fill-rule="evenodd" clip-rule="evenodd" d="M16.9948 11.4253C16.9948 12.2552 16.8314 13.0769 16.5138 13.8437C16.1962 14.6104 15.7307 15.307 15.1439 15.8939C14.557 16.4807 13.8604 16.9462 13.0937 17.2638C12.3269 17.5814 11.5052 17.7448 10.6753 17.7448C9.84536 17.7448 9.02359 17.5814 8.25687 17.2638C7.49014 16.9462 6.79348 16.4807 6.20665 15.8939C5.61982 15.307 5.15433 14.6104 4.83674 13.8437C4.51915 13.0769 4.35569 12.2552 4.35569 11.4253C4.35569 9.74921 5.0215 8.1418 6.20665 6.95665C7.3918 5.7715 8.99921 5.10569 10.6753 5.10569C12.3513 5.10569 13.9587 5.7715 15.1439 6.95665C16.329 8.1418 16.9948 9.74921 16.9948 11.4253ZM15.8433 18.0819C14.1501 19.3963 12.0197 20.0161 9.88573 19.815C7.75173 19.614 5.77457 18.6072 4.35674 16.9997C2.93892 15.3921 2.18703 13.3047 2.25413 11.1623C2.32124 9.01989 3.2023 6.9836 4.71795 5.46795C6.2336 3.9523 8.26989 3.07124 10.4123 3.00413C12.5547 2.93703 14.6421 3.68892 16.2497 5.10674C17.8572 6.52457 18.864 8.50173 19.065 10.6357C19.2661 12.7697 18.6463 14.9001 17.3319 16.5933L21.25 20.5114C20.974 20.7875 20.974 20.7875 20.974 20.7875C20.974 20.7875 20.6059 21.1556 20.5059 21.2556C20.4059 21.3556 20.0378 21.7237 20.0378 21.7237C20.0378 21.7237 20.0378 21.7237 19.7614 22L15.8433 18.0819Z" fill="#F7323F"/>
</svg>
