<svg width="20" height="20" viewBox="0 0 20 20" fill="none" xmlns="http://www.w3.org/2000/svg">
<rect width="20" height="20" rx="10" fill="#999999"/>
<path d="M4 9.33333C4 6.81933 4 5.562 4.78133 4.78133C5.56267 4.00067 6.81933 4 9.33333 4H10.6667C13.1807 4 14.438 4 15.2187 4.78133C15.9993 5.56267 16 6.81933 16 9.33333V10.6667C16 13.1807 16 14.438 15.2187 15.2187C14.4373 15.9993 13.1807 16 10.6667 16H9.33333C6.81933 16 5.562 16 4.78133 15.2187C4.00067 14.4373 4 13.1807 4 10.6667V9.33333Z" stroke="white"/>
<path d="M13 8C13.5523 8 14 7.55228 14 7C14 6.44772 13.5523 6 13 6C12.4477 6 12 6.44772 12 7C12 7.55228 12.4477 8 13 8Z" fill="white"/>
<path d="M10 12C11.1046 12 12 11.1046 12 10C12 8.89543 11.1046 8 10 8C8.89543 8 8 8.89543 8 10C8 11.1046 8.89543 12 10 12Z" stroke="white"/>
</svg>
