<svg width="29" height="24" viewBox="0 0 29 24" fill="none" xmlns="http://www.w3.org/2000/svg">
<path d="M17 2V6M9 2V6M4 10H22M14 4H12C8.229 4 6.343 4 5.172 5.172C4.001 6.344 4 8.229 4 12V14C4 17.771 4 19.657 5.172 20.828C6.344 21.999 8.229 22 12 22H14C17.771 22 19.657 22 20.828 20.828C21.999 19.656 22 17.771 22 14V12C22 8.229 22 6.343 20.828 5.172C19.656 4.001 17.771 4 14 4Z" stroke="#707070" stroke-width="1.5" stroke-linecap="round" stroke-linejoin="round"/>
<path d="M19.6667 15.5H26.1667M24.1667 13C24.6727 13.491 26.6667 14.8 26.6667 15.5C26.6667 16.2 24.6727 17.508 24.1667 18" stroke="#707070" stroke-width="1.5" stroke-linecap="round" stroke-linejoin="round"/>
</svg>
