<svg width="20" height="20" viewBox="0 0 20 20" fill="none" xmlns="http://www.w3.org/2000/svg">
<path d="M8.2 13.2857L12.871 10.5L8.2 7.71429V13.2857ZM18.604 6.015C18.721 6.45143 18.802 7.03643 18.856 7.77929C18.919 8.52214 18.946 9.16286 18.946 9.72L19 10.5C19 12.5336 18.856 14.0286 18.604 14.985C18.379 15.8207 17.857 16.3593 17.047 16.5914C16.624 16.7121 15.85 16.7957 14.662 16.8514C13.492 16.9164 12.421 16.9443 11.431 16.9443L10 17C6.229 17 3.88 16.8514 2.953 16.5914C2.143 16.3593 1.621 15.8207 1.396 14.985C1.279 14.5486 1.198 13.9636 1.144 13.2207C1.081 12.4779 1.054 11.8371 1.054 11.28L1 10.5C1 8.46643 1.144 6.97143 1.396 6.015C1.621 5.17929 2.143 4.64071 2.953 4.40857C3.376 4.28786 4.15 4.20429 5.338 4.14857C6.508 4.08357 7.579 4.05571 8.569 4.05571L10 4C13.771 4 16.12 4.14857 17.047 4.40857C17.857 4.64071 18.379 5.17929 18.604 6.015Z" fill="#999999"/>
</svg>
