<svg width="24" height="24" viewBox="0 0 24 24" fill="none" xmlns="http://www.w3.org/2000/svg">
<path fill-rule="evenodd" clip-rule="evenodd" d="M9.8787 2.8828C10.4244 2.40889 11.1229 2.14795 11.8457 2.14795C12.5685 2.14795 13.267 2.40889 13.8127 2.8828L20.8127 8.9588C21.1371 9.2405 21.3972 9.5886 21.5754 9.97955C21.7537 10.3705 21.8458 10.7951 21.8457 11.2248V18.9998C21.8457 19.7954 21.5296 20.5585 20.967 21.1211C20.4044 21.6837 19.6414 21.9998 18.8457 21.9998H15.3457C14.9479 21.9998 14.5663 21.8418 14.285 21.5605C14.0037 21.2792 13.8457 20.8976 13.8457 20.4998V13.6868H9.8457V20.4998C9.8457 20.8976 9.68767 21.2792 9.40636 21.5605C9.12506 21.8418 8.74353 21.9998 8.3457 21.9998H4.8457C4.05005 21.9998 3.28699 21.6837 2.72438 21.1211C2.16177 20.5585 1.8457 19.7954 1.8457 18.9998V11.2248C1.84558 10.7951 1.93775 10.3705 2.11597 9.97955C2.29419 9.5886 2.5543 9.2405 2.8787 8.9588L9.8787 2.8828ZM12.5017 4.3928C12.3197 4.23465 12.0868 4.14756 11.8457 4.14756C11.6046 4.14756 11.3717 4.23465 11.1897 4.3928L4.1897 10.4698C4.08167 10.5637 3.99505 10.6797 3.93571 10.8099C3.87636 10.9402 3.84567 11.0817 3.8457 11.2248V18.9998C3.8457 19.265 3.95106 19.5194 4.1386 19.7069C4.32613 19.8944 4.58049 19.9998 4.8457 19.9998H7.8457V13.6868C7.8457 13.1564 8.05642 12.6477 8.43149 12.2726C8.80656 11.8975 9.31527 11.6868 9.8457 11.6868H13.8457C14.3761 11.6868 14.8848 11.8975 15.2599 12.2726C15.635 12.6477 15.8457 13.1564 15.8457 13.6868V19.9998H18.8457C19.1109 19.9998 19.3653 19.8944 19.5528 19.7069C19.7403 19.5194 19.8457 19.265 19.8457 18.9998V11.2248C19.8456 11.0816 19.8148 10.9401 19.7552 10.8098C19.6957 10.6796 19.6089 10.5636 19.5007 10.4698L12.5017 4.3928Z" fill="#F7323F"/>
</svg>
