<svg width="24" height="24" viewBox="0 0 24 24" fill="none" xmlns="http://www.w3.org/2000/svg">
<path d="M5.74541 11.5906L12.2653 18.7754L18.7851 11.5906C19.3616 10.9554 19.6854 10.0938 19.6854 9.19548C19.6854 8.29713 19.3616 7.43558 18.7851 6.80035C18.4997 6.48582 18.1609 6.23631 17.7879 6.06609C17.415 5.89587 17.0153 5.80825 16.6117 5.80825C15.7965 5.80825 15.0147 6.16512 14.4382 6.80035L12.2653 9.19492L10.0923 6.80148C9.51443 6.17477 8.73521 5.8251 7.92442 5.82863C7.11362 5.83217 6.33694 6.18862 5.76355 6.82034C5.19016 7.45206 4.86652 8.30787 4.86312 9.20136C4.85972 10.0948 5.17685 10.9536 5.74541 11.5906ZM11.541 5.20284L12.2653 6.00103L12.9896 5.20284C13.4645 4.6749 14.0294 4.25552 14.6517 3.96879C15.2741 3.68205 15.9417 3.53361 16.6163 3.53198C17.2909 3.53035 17.9591 3.67557 18.5826 3.9593C19.2062 4.24303 19.7727 4.65967 20.2497 5.18532C20.7267 5.71097 21.1048 6.33527 21.3622 7.02237C21.6197 7.70948 21.7515 8.44586 21.75 9.18923C21.7485 9.93261 21.6138 10.6683 21.3536 11.3542C21.0934 12.0401 20.7129 12.6625 20.2338 13.1859L12.9906 21.1689C12.8955 21.2739 12.7825 21.3571 12.6581 21.4139C12.5337 21.4708 12.4004 21.5 12.2658 21.5C12.1312 21.5 11.9978 21.4708 11.8735 21.4139C11.7491 21.3571 11.6361 21.2739 11.541 21.1689L4.29678 13.187C3.81119 12.6653 3.42442 12.0426 3.15891 11.355C2.89341 10.6673 2.75445 9.92837 2.75011 9.18107C2.74576 8.43377 2.87611 7.69295 3.1336 7.00159C3.39109 6.31024 3.77058 5.68211 4.25008 5.15364C4.72957 4.62516 5.29951 4.20687 5.92685 3.92303C6.55418 3.63918 7.22641 3.49543 7.90455 3.50011C8.58269 3.50479 9.25324 3.65782 9.87729 3.9503C10.5013 4.24279 11.0665 4.66892 11.5399 5.20397L11.541 5.20284Z" fill="#808080"/>
</svg>
