<svg width="24" height="24" viewBox="0 0 24 24" fill="none" xmlns="http://www.w3.org/2000/svg">
<path d="M16 2V6M8 2V6M3 10H21M13 4H11C7.229 4 5.343 4 4.172 5.172C3.001 6.344 3 8.229 3 12V14C3 17.771 3 19.657 4.172 20.828C5.344 21.999 7.229 22 11 22H13C16.771 22 18.657 22 19.828 20.828C20.999 19.656 21 17.771 21 14V12C21 8.229 21 6.343 19.828 5.172C18.656 4.001 16.771 4 13 4Z" stroke="#707070" stroke-width="1.5" stroke-linecap="round" stroke-linejoin="round"/>
<path d="M6.5 18C7.006 17.509 9 16.2 9 15.5C9 14.8 7.006 13.492 6.5 13M8.5 15.5H2" stroke="#707070" stroke-width="1.5" stroke-linecap="round" stroke-linejoin="round"/>
</svg>
